<svg xmlns="http://www.w3.org/2000/svg" viewBox="0 0 200 50" width="200" height="50">
  <g fill="#fff">
    <path d="M20,15 L30,15 L30,25 L40,15 L55,15 L40,30 L55,45 L40,45 L30,35 L30,45 L20,45 L20,15 Z"/>
    <path d="M60,15 L70,15 L70,30 C70,33 72,35 75,35 C78,35 80,33 80,30 L80,15 L90,15 L90,30 C90,38 83,45 75,45 C67,45 60,38 60,30 L60,15 Z"/>
    <path d="M95,15 L115,15 L125,30 L125,15 L135,15 L135,45 L115,45 L105,30 L105,45 L95,45 L95,15 Z"/>
    <path d="M140,15 L150,15 L150,35 L170,35 L170,45 L140,45 L140,15 Z"/>
    <path d="M175,15 L185,15 L185,45 L175,45 L175,15 Z"/>
  </g>
</svg>