<svg xmlns="http://www.w3.org/2000/svg" viewBox="0 0 200 50" width="200" height="50">
  <g fill="#fff">
    <path d="M20,15 C20,15 25,15 30,15 C35,15 40,20 40,25 C40,30 35,35 30,35 L25,35 L25,45 L20,45 L20,15 Z M25,20 L25,30 L30,30 C32.5,30 35,27.5 35,25 C35,22.5 32.5,20 30,20 L25,20 Z"/>
    <path d="M45,15 L65,15 L65,20 L50,20 L50,25 L60,25 L60,30 L50,30 L50,40 L65,40 L65,45 L45,45 L45,15 Z"/>
    <path d="M70,15 L75,15 L85,35 L95,15 L100,15 L85,45 L80,45 L70,15 Z"/>
    <path d="M105,15 L125,15 L125,20 L115,20 L115,45 L110,45 L110,20 L105,20 L105,15 Z"/>
    <path d="M130,15 L150,15 L150,20 L135,20 L135,25 L145,25 L145,30 L135,30 L135,40 L150,40 L150,45 L130,45 L130,15 Z"/>
    <path d="M155,15 L160,15 L160,45 L155,45 L155,15 Z"/>
  </g>
</svg>