<svg xmlns="http://www.w3.org/2000/svg" viewBox="0 0 200 50" width="200" height="50">
  <g fill="#fff">
    <path d="M10,20 C10,17.5 12.5,15 15,15 L25,15 C27.5,15 30,17.5 30,20 L30,25 C30,27.5 27.5,30 25,30 L15,30 C12.5,30 10,27.5 10,25 L10,20 Z M15,20 L15,25 L25,25 L25,20 L15,20 Z"/>
    <path d="M35,15 L40,15 L40,30 C40,32.5 42.5,35 45,35 C47.5,35 50,32.5 50,30 L50,15 L55,15 L55,30 C55,35 50,40 45,40 C40,40 35,35 35,30 L35,15 Z"/>
    <path d="M60,15 L65,15 L65,25 L75,15 L82.5,15 L70,27.5 L85,40 L77.5,40 L65,30 L65,40 L60,40 L60,15 Z"/>
    <path d="M90,15 L95,15 L95,25 L105,15 L112.5,15 L100,27.5 L115,40 L107.5,40 L95,30 L95,40 L90,40 L90,15 Z"/>
    <path d="M120,15 L140,15 L140,20 L125,20 L125,25 L135,25 L135,30 L125,30 L125,35 L140,35 L140,40 L120,40 L120,15 Z"/>
    <path d="M145,15 L150,15 L150,25 L160,15 L167.5,15 L155,27.5 L170,40 L162.5,40 L150,30 L150,40 L145,40 L145,15 Z"/>
    <path d="M175,15 C175,15 180,15 185,15 C190,15 195,20 195,25 C195,30 190,35 185,35 L180,35 L180,40 L175,40 L175,15 Z M180,20 L180,30 L185,30 C187.5,30 190,27.5 190,25 C190,22.5 187.5,20 185,20 L180,20 Z"/>
  </g>
</svg>