<svg xmlns="http://www.w3.org/2000/svg" viewBox="0 0 200 50" width="200" height="50">
  <g fill="#fff">
    <path d="M30,10 C18.95,10 10,18.95 10,30 C10,41.05 18.95,50 30,50 C41.05,50 50,41.05 50,30 C50,18.95 41.05,10 30,10 Z M30,45 C21.72,45 15,38.28 15,30 C15,21.72 21.72,15 30,15 C38.28,15 45,21.72 45,30 C45,38.28 38.28,45 30,45 Z"/>
    <path d="M60,15 L70,15 L75,35 L80,15 L90,15 L95,35 L100,15 L110,15 L100,45 L90,45 L85,25 L80,45 L70,45 L60,15 Z"/>
    <path d="M115,15 L125,15 L125,45 L115,45 L115,15 Z"/>
    <path d="M130,15 L140,15 L150,35 L150,15 L160,15 L160,45 L150,45 L140,25 L140,45 L130,45 L130,15 Z"/>
    <path d="M165,15 L190,15 L190,25 L175,25 L175,27 L185,27 L185,35 L175,35 L175,37 L190,37 L190,45 L165,45 L165,15 Z"/>
  </g>
</svg>