<svg xmlns="http://www.w3.org/2000/svg" viewBox="0 0 200 50" width="200" height="50">
  <g fill="#fff">
    <path d="M30,15 L40,15 L50,35 L60,15 L70,15 L55,45 L45,45 L30,15 Z"/>
    <path d="M75,15 L85,15 L85,30 C85,33 87,35 90,35 C93,35 95,33 95,30 L95,15 L105,15 L105,30 C105,38 98,45 90,45 C82,45 75,38 75,30 L75,15 Z"/>
    <path d="M110,15 L120,15 L120,30 L135,15 L150,15 L130,30 L150,45 L135,45 L120,35 L120,45 L110,45 L110,15 Z"/>
    <path d="M155,15 L180,15 L180,25 L165,25 L165,27 L175,27 L175,35 L165,35 L165,37 L180,37 L180,45 L155,45 L155,15 Z"/>
  </g>
</svg>