<svg xmlns="http://www.w3.org/2000/svg" viewBox="0 0 800 600" width="800" height="600">
  <!-- Background -->
  <rect width="800" height="600" fill="#0f172a" />
  
  <!-- Office building -->
  <g>
    <rect x="250" y="150" width="300" height="350" fill="#1e293b" stroke="#334155" stroke-width="2" />
    
    <!-- Windows -->
    <g fill="#94a3b8">
      <!-- Row 1 -->
      <rect x="280" y="180" width="40" height="30" />
      <rect x="340" y="180" width="40" height="30" />
      <rect x="400" y="180" width="40" height="30" />
      <rect x="460" y="180" width="40" height="30" />
      
      <!-- Row 2 -->
      <rect x="280" y="230" width="40" height="30" />
      <rect x="340" y="230" width="40" height="30" />
      <rect x="400" y="230" width="40" height="30" />
      <rect x="460" y="230" width="40" height="30" />
      
      <!-- Row 3 -->
      <rect x="280" y="280" width="40" height="30" />
      <rect x="340" y="280" width="40" height="30" />
      <rect x="400" y="280" width="40" height="30" />
      <rect x="460" y="280" width="40" height="30" />
      
      <!-- Row 4 -->
      <rect x="280" y="330" width="40" height="30" />
      <rect x="340" y="330" width="40" height="30" />
      <rect x="400" y="330" width="40" height="30" />
      <rect x="460" y="330" width="40" height="30" />
      
      <!-- Row 5 -->
      <rect x="280" y="380" width="40" height="30" />
      <rect x="340" y="380" width="40" height="30" />
      <rect x="400" y="380" width="40" height="30" />
      <rect x="460" y="380" width="40" height="30" />
    </g>
    
    <!-- Entrance -->
    <rect x="370" y="450" width="60" height="50" fill="#475569" />
  </g>
  
  <!-- Network tower -->
  <g>
    <rect x="600" y="200" width="20" height="300" fill="#64748b" />
    
    <!-- Antenna elements -->
    <path d="M610,200 L640,180 L640,220 L610,200 Z" fill="#94a3b8" />
    <path d="M610,250 L640,230 L640,270 L610,250 Z" fill="#94a3b8" />
    <path d="M610,300 L640,280 L640,320 L610,300 Z" fill="#94a3b8" />
    
    <!-- Signal waves -->
    <g stroke="#60a5fa" fill="none" opacity="0.7">
      <path d="M640,200 Q670,150 700,200" stroke-width="2" />
      <path d="M640,200 Q680,120 720,200" stroke-width="1.5" />
      <path d="M640,200 Q690,90 740,200" stroke-width="1" />
    </g>
  </g>
  
  <!-- Connection lines -->
  <g stroke="#3b82f6" stroke-width="2" fill="none">
    <path d="M550,250 C570,250 580,250 600,250" />
    <path d="M550,300 C570,300 580,300 600,300" />
  </g>
  
  <!-- Data packets -->
  <g fill="#ffffff">
    <circle cx="560" cy="250" r="3" />
    <circle cx="580" cy="250" r="2" />
    <circle cx="570" cy="300" r="3" />
    <circle cx="590" cy="300" r="2" />
  </g>
  
  <!-- Devices inside building -->
  <g>
    <!-- Server -->
    <rect x="180" y="350" width="40" height="60" fill="#475569" stroke="#64748b" stroke-width="1" />
    <rect x="185" y="355" width="30" height="5" fill="#60a5fa" />
    <rect x="185" y="365" width="30" height="5" fill="#3b82f6" />
    <rect x="185" y="375" width="30" height="5" fill="#60a5fa" />
    
    <!-- Connection to building -->
    <path d="M220,380 C235,380 235,300 250,300" stroke="#3b82f6" stroke-width="2" fill="none" />
  </g>
  
  <!-- Computers in windows -->
  <g fill="#0ea5e9">
    <rect x="290" y="190" width="20" height="15" />
    <rect x="350" y="190" width="20" height="15" />
    <rect x="410" y="190" width="20" height="15" />
    <rect x="470" y="190" width="20" height="15" />
    
    <rect x="290" y="240" width="20" height="15" />
    <rect x="350" y="240" width="20" height="15" />
    <rect x="410" y="240" width="20" height="15" />
    <rect x="470" y="240" width="20" height="15" />
    
    <rect x="290" y="290" width="20" height="15" />
    <rect x="350" y="290" width="20" height="15" />
    <rect x="410" y="290" width="20" height="15" />
    <rect x="470" y="290" width="20" height="15" />
  </g>
  
  <!-- Digital particles -->
  <g fill="#ffffff" opacity="0.6">
    <circle cx="200" cy="150" r="1" />
    <circle cx="250" cy="180" r="1" />
    <circle cx="300" cy="120" r="1" />
    <circle cx="350" cy="140" r="1" />
    <circle cx="400" cy="100" r="1" />
    <circle cx="450" cy="130" r="1" />
    <circle cx="500" cy="160" r="1" />
    <circle cx="550" cy="110" r="1" />
    <circle cx="600" cy="170" r="1" />
    <circle cx="650" cy="140" r="1" />
    <circle cx="700" cy="120" r="1" />
  </g>
  
  <!-- Signal pulses -->
  <g>
    <circle cx="640" cy="200" r="10" fill="none" stroke="#60a5fa" stroke-width="2">
      <animate attributeName="r" values="5;15;5" dur="3s" repeatCount="indefinite" />
      <animate attributeName="opacity" values="0.8;0.2;0.8" dur="3s" repeatCount="indefinite" />
    </circle>
  </g>
</svg>