<svg xmlns="http://www.w3.org/2000/svg" viewBox="0 0 800 600" width="800" height="600">
  <!-- Background -->
  <rect width="800" height="600" fill="#0f172a" />
  
  <!-- Landscape elements -->
  <g>
    <!-- Hills -->
    <path d="M0,450 Q200,350 400,450 Q600,350 800,450 L800,600 L0,600 Z" fill="#1e293b" />
    
    <!-- Ground -->
    <rect x="0" y="450" width="800" height="150" fill="#0f172a" />
  </g>
  
  <!-- Main tower -->
  <g transform="translate(400, 200)">
    <!-- Tower base -->
    <rect x="-10" y="0" width="20" height="250" fill="#64748b" />
    
    <!-- Tower sections -->
    <rect x="-20" y="50" width="40" height="10" fill="#475569" />
    <rect x="-20" y="100" width="40" height="10" fill="#475569" />
    <rect x="-20" y="150" width="40" height="10" fill="#475569" />
    <rect x="-20" y="200" width="40" height="10" fill="#475569" />
    
    <!-- Tower top -->
    <polygon points="-15,-20 15,-20 10,0 -10,0" fill="#94a3b8" />
    
    <!-- Antennas -->
    <rect x="-25" y="-15" width="5" height="30" fill="#e2e8f0" />
    <rect x="20" y="-15" width="5" height="30" fill="#e2e8f0" />
    <rect x="-15" y="-30" width="30" height="10" fill="#cbd5e1" />
  </g>
  
  <!-- Secondary towers -->
  <g transform="translate(200, 300)">
    <!-- Tower base -->
    <rect x="-5" y="0" width="10" height="150" fill="#64748b" />
    
    <!-- Tower sections -->
    <rect x="-10" y="30" width="20" height="5" fill="#475569" />
    <rect x="-10" y="60" width="20" height="5" fill="#475569" />
    <rect x="-10" y="90" width="20" height="5" fill="#475569" />
    <rect x="-10" y="120" width="20" height="5" fill="#475569" />
    
    <!-- Antenna -->
    <rect x="-8" y="-15" width="16" height="15" fill="#94a3b8" />
  </g>
  
  <g transform="translate(600, 280)">
    <!-- Tower base -->
    <rect x="-5" y="0" width="10" height="170" fill="#64748b" />
    
    <!-- Tower sections -->
    <rect x="-10" y="40" width="20" height="5" fill="#475569" />
    <rect x="-10" y="80" width="20" height="5" fill="#475569" />
    <rect x="-10" y="120" width="20" height="5" fill="#475569" />
    
    <!-- Antenna -->
    <rect x="-8" y="-15" width="16" height="15" fill="#94a3b8" />
  </g>
  
  <!-- Wireless signals -->
  <g stroke-width="2" fill="none" opacity="0.7">
    <!-- Main tower signals -->
    <path d="M400,180 C350,150 300,170 200,285" stroke="#3b82f6" />
    <path d="M400,180 C450,150 500,170 600,265" stroke="#3b82f6" />
    
    <!-- Signal waves from main tower -->
    <circle cx="400" cy="180" r="30" stroke="#60a5fa" stroke-width="1">
      <animate attributeName="r" values="30;60;30" dur="4s" repeatCount="indefinite" />
      <animate attributeName="opacity" values="0.7;0.3;0.7" dur="4s" repeatCount="indefinite" />
    </circle>
    <circle cx="400" cy="180" r="45" stroke="#60a5fa" stroke-width="1">
      <animate attributeName="r" values="45;75;45" dur="4s" repeatCount="indefinite" />
      <animate attributeName="opacity" values="0.5;0.2;0.5" dur="4s" repeatCount="indefinite" />
    </circle>
    <circle cx="400" cy="180" r="60" stroke="#60a5fa" stroke-width="1">
      <animate attributeName="r" values="60;90;60" dur="4s" repeatCount="indefinite" />
      <animate attributeName="opacity" values="0.3;0.1;0.3" dur="4s" repeatCount="indefinite" />
    </circle>
    
    <!-- Signal waves from secondary towers -->
    <circle cx="200" cy="285" r="20" stroke="#60a5fa" stroke-width="1">
      <animate attributeName="r" values="20;40;20" dur="3s" repeatCount="indefinite" />
      <animate attributeName="opacity" values="0.7;0.3;0.7" dur="3s" repeatCount="indefinite" />
    </circle>
    
    <circle cx="600" cy="265" r="20" stroke="#60a5fa" stroke-width="1">
      <animate attributeName="r" values="20;40;20" dur="3s" repeatCount="indefinite" />
      <animate attributeName="opacity" values="0.7;0.3;0.7" dur="3s" repeatCount="indefinite" />
    </circle>
  </g>
  
  <!-- Devices -->
  <g>
    <!-- House with device -->
    <g transform="translate(100, 400)">
      <rect x="0" y="0" width="60" height="50" fill="#334155" />
      <polygon points="0,0 30,-20 60,0" fill="#475569" />
      <rect x="10" y="20" width="15" height="15" fill="#94a3b8" /> <!-- Window -->
      <rect x="35" y="30" width="15" height="20" fill="#64748b" /> <!-- Door -->
      
      <!-- Router/device -->
      <rect x="70" y="20" width="20" height="15" fill="#0ea5e9" />
      
      <!-- Connection -->
      <path d="M70,27 C65,27 65,27 60,27" stroke="#3b82f6" stroke-width="1" />
      <path d="M90,27 C110,27 150,200 200,285" stroke="#3b82f6" stroke-width="1" stroke-dasharray="3,2" />
    </g>
    
    <!-- Office with device -->
    <g transform="translate(650, 380)">
      <rect x="0" y="0" width="80" height="70" fill="#1e293b" />
      <rect x="10" y="10" width="15" height="15" fill="#94a3b8" /> <!-- Window -->
      <rect x="35" y="10" width="15" height="15" fill="#94a3b8" /> <!-- Window -->
      <rect x="60" y="10" width="15" height="15" fill="#94a3b8" /> <!-- Window -->
      <rect x="30" y="40" width="20" height="30" fill="#64748b" /> <!-- Door -->
      
      <!-- Router/device -->
      <rect x="-30" y="20" width="20" height="15" fill="#0ea5e9" />
      
      <!-- Connection -->
      <path d="M-10,27 C-5,27 -5,27 0,27" stroke="#3b82f6" stroke-width="1" />
      <path d="M-30,27 C-50,27 -80,200 -50,265" stroke="#3b82f6" stroke-width="1" stroke-dasharray="3,2" />
    </g>
    
    <!-- Mobile device -->
    <g transform="translate(350, 420)">
      <rect x="0" y="0" width="10" height="20" rx="2" ry="2" fill="#e2e8f0" />
      <rect x="1" y="2" width="8" height="14" fill="#0ea5e9" />
      
      <!-- Connection -->
      <path d="M5,0 C5,-50 100,-100 400,180" stroke="#3b82f6" stroke-width="1" stroke-dasharray="3,2" />
    </g>
  </g>
  
  <!-- Data packets -->
  <g fill="#ffffff">
    <circle cx="300" cy="200" r="2">
      <animate attributeName="cx" values="400;300;200" dur="3s" repeatCount="indefinite" />
      <animate attributeName="cy" values="180;200;285" dur="3s" repeatCount="indefinite" />
    </circle>
    
    <circle cx="500" cy="200" r="2">
      <animate attributeName="cx" values="400;500;600" dur="3s" repeatCount="indefinite" />
      <animate attributeName="cy" values="180;200;265" dur="3s" repeatCount="indefinite" />
    </circle>
    
    <circle cx="350" cy="300" r="2">
      <animate attributeName="cx" values="400;350;300" dur="4s" repeatCount="indefinite" />
      <animate attributeName="cy" values="180;300;420" dur="4s" repeatCount="indefinite" />
    </circle>
  </g>
  
  <!-- Digital particles -->
  <g fill="#ffffff" opacity="0.6">
    <circle cx="200" cy="150" r="1" />
    <circle cx="250" cy="180" r="1" />
    <circle cx="300" cy="120" r="1" />
    <circle cx="350" cy="140" r="1" />
    <circle cx="400" cy="100" r="1" />
    <circle cx="450" cy="130" r="1" />
    <circle cx="500" cy="160" r="1" />
    <circle cx="550" cy="110" r="1" />
    <circle cx="600" cy="170" r="1" />
    <circle cx="650" cy="140" r="1" />
    <circle cx="700" cy="120" r="1" />
  </g>
</svg>